<?xml version="1.0" encoding="utf-8"?>
<!-- Generator: Adobe Illustrator 22.0.0, SVG Export Plug-In . SVG Version: 6.00 Build 0)  -->
<svg version="1.1" id="Layer_1" xmlns="http://www.w3.org/2000/svg" xmlns:xlink="http://www.w3.org/1999/xlink" x="0px" y="0px"
	 viewBox="0 0 1000 1000" style="enable-background:new 0 0 1000 1000;" xml:space="preserve">
<style type="text/css">
	.st0{fill:#F8C900;}
</style>
<g id="Layer_1-2">
	<path class="st0" d="M171.2,418.8V853h108.5V418.8H171.2z M212.4,826.2c0,4.8-3.9,8.7-8.7,8.7h-4.3c-4.8,0-8.7-3.9-8.7-8.7V445.6
		c0-4.8,3.9-8.7,8.7-8.7h4.3c4.8,0,8.7,3.9,8.7,8.7V826.2z M261.6,826.2c0,4.8-3.9,8.7-8.7,8.7h-4.3c-4.8,0-8.7-3.9-8.7-8.7V445.6
		c0-4.8,3.9-8.7,8.7-8.7h4.3c4.8,0,8.7,3.9,8.7,8.7V826.2z"/>
	<rect x="153.1" y="852.9" class="st0" width="144.7" height="21.7"/>
	<rect x="135" y="874.8" class="st0" width="180.9" height="36.2"/>
	
		<rect x="153.1" y="397.2" transform="matrix(1 -1.047197e-03 1.047197e-03 1 -0.4272 0.2363)" class="st0" width="144.7" height="21.7"/>
	<polygon class="st0" points="135,361.3 315.9,361 315.9,396.9 135.1,397.2 	"/>
	<path class="st0" d="M721.2,418.8V853h108.5V418.8H721.2z M762.4,826.2c0,4.8-3.9,8.7-8.7,8.7h-4.3c-4.8,0-8.7-3.9-8.7-8.7V445.6
		c0-4.8,3.9-8.7,8.7-8.7h4.3c4.8,0,8.7,3.9,8.7,8.7V826.2z M811.6,826.2c0,4.8-3.9,8.7-8.7,8.7h-4.3c-4.8,0-8.7-3.9-8.7-8.7V445.6
		c0-4.8,3.9-8.7,8.7-8.7h4.3c4.8,0,8.7,3.9,8.7,8.7V826.2z"/>
	<rect x="703.1" y="852.9" class="st0" width="144.7" height="21.7"/>
	<rect x="685" y="874.8" class="st0" width="180.9" height="36.2"/>
	
		<rect x="703.1" y="397.2" transform="matrix(1 -1.047197e-03 1.047197e-03 1 -0.4269 0.8123)" class="st0" width="144.7" height="21.7"/>
	<polygon class="st0" points="685,361.3 865.9,361 865.9,396.9 685.1,397.2 	"/>
	<path class="st0" d="M561.3,83.6c-1.3-0.9-2.8-1.5-4.4-1.7L546,79.8l-2.4,12.7l10.6,2c1.6,0.4,3.3,0.5,4.9,0.1
		c2-0.5,3.3-2.1,3.8-4.8S562.9,84.9,561.3,83.6z"/>
	<polygon class="st0" points="666.4,156.6 673.2,137.9 656.7,149 	"/>
	<path class="st0" d="M500.5,31c-182.2,0-330,147.8-330,330h110c0-121.5,98.5-220,220-220s220,98.5,220,220h110
		C830.5,178.7,682.7,31,500.5,31z M315.4,202.5c-5.4,6.3-11,8.9-16.9,7.8c-3.2-0.6-6.7-2.6-10.6-5.9l-22.4-19.2l6.6-7.8l22.4,19.2
		c2.5,2.1,4.6,3.4,6.3,3.8c2.8,0.8,5.6-0.3,8.2-3.4s3.3-6,2.1-8.6c-0.6-1.6-2.2-3.4-4.7-5.6L284,163.6l6.6-7.8L313,175
		c3.9,3.3,6.4,6.5,7.5,9.6C322.5,190.2,320.8,196.2,315.4,202.5z M365.3,156.5l-35.8-16.2l19.9,27.6l-7.6,5.5l-28.1-39l8.5-6.2
		l35.1,16L337.7,117l7.6-5.5l28.1,39L365.3,156.5z M391.3,141.6l-20.6-43.4l9-4.3l20.6,43.4L391.3,141.6z M440.8,123.3l-9.1,2.5
		l-28.3-42.1l10.3-2.8l19.7,32.4l0.6-38l10.1-2.7L440.8,123.3z M473.6,116.9l-1.9-48l35.2-1.4l0.3,8.5l-25.4,1l0.4,10.2l23.3-0.9
		l0.3,8.3l-23.2,0.9l0.5,12.3l26.6-1.1l0.4,8.6L473.6,116.9z M573,90.4c-0.5,2.3-1.5,4.5-3,6.3c-1.6,2-4,3.2-6.5,3.5
		c1.8,1,3.2,2.7,3.9,4.6c0.6,1.8,0.6,4.3-0.1,7.6l-0.6,3.2c-0.3,1.4-0.5,2.9-0.6,4.4c0,1.1,0.4,2.2,1.3,3l-0.2,1.2l-10.9-2.1
		c-0.1-1.1-0.1-2-0.2-2.7c0-1.4,0.1-2.8,0.4-4.1l0.8-4.4c0.5-3,0.4-5.1-0.4-6.3s-2.6-2.1-5.3-2.6l-9.6-1.9l-3.6,18.5l-9.6-1.9
		l9.1-47.2l22.6,4.4c2.5,0.4,5,1.4,7.2,2.7c1.6,1.1,2.9,2.5,3.8,4.1c0.8,1.4,1.3,2.9,1.6,4.4C573.4,86.9,573.4,88.7,573,90.4
		L573,90.4z M622.7,103.5c-1.4-1.6-3.1-2.8-5-3.6c-2-1-4.2-1.4-6.4-1.2c-1.8,0.2-3.3,1.4-4,3c-0.7,1.5-0.5,3.2,0.5,4.5
		c1.5,1.7,3.2,3.1,5,4.4l6.9,5.3c3,2.3,5.1,4.5,6.1,6.6c1.7,3.2,1.6,6.8-0.1,10.7c-1.7,3.9-5,6.8-9.1,7.9c-4.3,1.2-9.3,0.6-14.9-2
		c-5.8-2.6-9.7-6-11.8-10.1c-2.1-4.1-2.2-8.9-0.1-13l8.7,4c-0.6,1.7-0.7,3.5-0.4,5.2c0.7,2.5,2.9,4.6,6.6,6.2
		c1.8,0.9,3.7,1.5,5.7,1.7c3,0.3,5.1-0.8,6.2-3.3c0.7-1.4,0.5-3-0.4-4.2c-1.4-1.9-3.2-3.5-5.1-4.8l-4.3-3.2
		c-4.2-3.1-6.9-5.7-8.1-7.7c-2-3.4-2.1-7.2-0.1-11.5c1.6-3.7,4.8-6.6,8.7-7.8c4.1-1.3,8.9-0.7,14.5,1.9c4.4,1.8,8,5,10.3,9.1
		c2.2,3.9,2.3,8.3,0.4,13l-8.8-4C624.8,108.2,624.4,105.5,622.7,103.5z M659.9,174.5l3.5-9.8l-14-10.8l-8.6,5.8l-8.3-6.4l42.9-27.5
		l9,6.9l-15.8,48.4L659.9,174.5z M693.2,195.9l15.2,18.5l-6.7,5.5l-21.6-26.3l37.1-30.5l6.4,7.8L693.2,195.9z"/>
	<polygon class="st0" points="688.6,918 312.6,918 305.6,938 696.6,938 	"/>
	<polygon class="st0" points="699.6,948 302.6,948 294.6,969 707.6,968 	"/>
	<g id="Perspective_Text">
		<path class="st0" d="M493.5,431.2c0.1-1.2-0.2-2.5-0.9-3.5c-0.3-0.3-0.7-0.5-1.1-0.5c-0.8,0-1.6,0.7-2.3,2.2
			c-0.9,2.3-1.5,4.7-1.7,7.2c-0.4,2.6-0.4,5.2,0,7.8c0.5,1.6,1.2,2.5,2.1,2.5s1.6-0.7,2.3-2c0.7-1.6,1.2-3.2,1.4-4.9h-2.7l0.5-4.8
			h4.7l-1.2,16.8h-1.8v-4.3c-0.4,1.2-1,2.4-1.6,3.5c-0.5,1.1-1.6,1.7-2.8,1.8c-1.7,0-2.9-1.7-3.6-4.8s-0.6-7,0.1-11.7
			c0.4-3.5,1.3-6.8,2.8-10c1.2-2.2,2.5-3.3,4-3.3c1.3,0,2.2,0.7,2.9,2.2c0.7,1.8,1.1,3.8,1,5.8H493.5z"/>
		<path class="st0" d="M508.7,427.8h-5.5l0.1,5.4h5.3l0.3,4.8h-5.6l0.1,7.9h6.8l0.4,6.2h-9.7l0.3-28.3h7.4L508.7,427.8z"/>
		<path class="st0" d="M520.5,423.7l0.7,4.1h-3.1l3.5,24.2h-2.7l-3.1-24.2h-3.1l-0.4-4.1L520.5,423.7z"/>
		<path class="st0" d="M479,477.7h3.4l-10.5,34.7l-4.9,29.9h-4.4l5.5-29.9l1.5-34.7h3.5l-1,22.6L479,477.7z"/>
		<path class="st0" d="M497.9,534.3c-1.7,6.9-4.1,10.5-7,10.5s-5-3.6-5.9-10.5c-1.3-7.9-1.2-18.2,0-30.2c1.1-10.7,2.5-18,4.4-22.4
			c1.4-3.6,3.1-5.3,5.1-5.3s3.5,1.7,4.5,5.3c1.4,4.5,2.2,11.7,2.1,22.4C501,516.1,500,526.4,497.9,534.3z M495.8,522
			c1.1-5.9,1.7-11.9,1.8-17.9c0.3-5,0-10-0.7-14.9c-0.6-3.1-1.6-4.7-2.8-4.7s-2.3,1.5-3.3,4.6c-1.3,4.9-2.1,9.9-2.3,14.9
			c-0.6,6-0.6,11.9,0,17.9c0.6,4.8,1.7,7.2,3.3,7.2C493.4,529.1,494.7,526.8,495.8,522z"/>
		<path class="st0" d="M507.5,477.7h3l1.9,33.9c0.1,3.6,0.5,7.2,1.1,10.8c0.7,4.4,1.9,6.6,3.6,6.6c1.6,0,2.5-2.3,2.6-6.6
			c0-3.6-0.2-7.2-0.6-10.8l-3.2-33.9h3l3.9,34c0.8,6.2,1.2,12.4,1.2,18.6c-0.2,9.4-2.1,14.4-5.7,14.4s-6.3-5-7.9-14.4
			c-1-6.2-1.5-12.4-1.6-18.6L507.5,477.7z"/>
		<path class="st0" d="M535.3,478.9c0.9,1,1.6,2.1,2.1,3.3c0.7,1.3,1.2,2.7,1.7,4.1c0.6,1.8,1.2,3.6,1.6,5.5
			c0.6,2.6,1.1,5.2,1.3,7.9c0.2,2.8,0,4.8-0.6,6c1.3,1.5,2.3,3.3,2.9,5.2c1.3,3.7,2.3,7.4,3.1,11.2l1.2,5.2c0.9,3.7,1.5,6.3,1.9,7.7
			c0.4,1.8,1.1,3.4,2,5l0.6,2.3h-4.7c-0.6-2-1-3.6-1.3-4.9c-0.6-2.5-1.2-4.9-1.8-7.4l-1.6-7.4c-0.6-3.2-1.4-6.3-2.6-9.3
			c-0.7-1.5-1.5-2.2-2.6-2.2h-3.6l5.6,31h-4.2l-10.4-64.6h6.9C533.8,477.7,534.7,478.2,535.3,478.9z M530.4,485.9l2.7,14.7h3.7
			c0.7,0,1.3-0.4,1.5-1c0.4-1.1,0.3-3.3-0.4-6.4c-0.7-3.3-1.5-5.4-2.3-6.4c-0.4-0.6-1-0.9-1.7-0.9L530.4,485.9z"/>
		<path class="st0" d="M387.1,721.5c-4.2,15.7-7.3,28.3-9,37c-3.2,16.9-3.1,25.8,0.7,25.8c2.3,0,4.7-2.4,7.3-7.1
			c4.8-8.8,9.9-24.2,14.9-44.9c2.7-11.2,4.2-19.5,4.5-25.1c0.4-4.7-0.2-9.4-1.6-13.9l-2.1-6.7c-2-6.5-2.6-13.3-1.9-20
			c1-11,4.8-26.9,10.7-46.3c4.8-15.7,9.3-27.6,13.6-36.4c4.1-8.2,7.5-12.1,10.7-12.1c2.6,0,3.9,3.7,3.9,11.4
			c0,8.2-1.9,21.1-6.1,39.9h-5.9c2.6-10.9,3.7-18.3,3.4-22.4c-0.2-2.7-1-4-2.3-4c-1.5,0-3.1,1.7-5,5.2c-2.4,5-4.4,10.3-5.8,15.7
			c-1.9,6.6-2.9,11.8-2.9,15.3c0.1,2.9,0.7,5.9,1.7,8.6l3.2,9c1.5,4.1,2,9.8,1.5,17.1c-0.7,12.1-4,31.1-10.3,59.3
			c-7.6,33.6-16.5,66.1-26.7,95.5c-11.5,33.4-21.3,51.7-28.2,51.7c-7.1,0-7.4-18.1-1.6-51c5.1-29.1,14-64,25.5-101.7h7.8
			L387.1,721.5L387.1,721.5z"/>
		<path class="st0" d="M479.8,575.7l-2.3,26.2h-8.2l-29.7,256.6h-11l35-256.5h-8.2l4.3-26.2L479.8,575.7L479.8,575.7z"/>
		<path class="st0" d="M496.6,575.7h5.3l-0.1,121.8c0,21.2,0.3,38.3,1,49.8c1.1,22.1,3.6,34,7.4,34c3.8,0,5.8-11.9,6.2-34
			c0.3-11.5,0-28.6-0.8-49.8l-4.4-121.8h5.3l6.9,122c1.9,33.9,2.9,64.9,2.8,90c-0.3,54.4-5.1,86.6-14.4,86.6s-15.2-32.2-17.5-86.6
			c-1-25.2-1-56.1-0.3-90L496.6,575.7z"/>
		<path class="st0" d="M535.3,575.9H553l5.2,26.1h-13.8l6.5,43.3h14l8.2,42.7h-15.8l25.5,170.5H572L535.3,575.9z"/>
		<path class="st0" d="M570.1,575.9h17.7l8.7,26.1h-13.8l12.4,43.3h14l14,42.7h-15.8L656,858.5h-10.8L570.1,575.9z"/>
	</g>
</g>
</svg>
